squats_1_grf
version=1
nRows=27
nColumns=19
inDegrees=no
endheader
time	ground_force_right_vx	ground_force_right_vy	ground_force_right_vz	ground_force_right_px	ground_force_right_py	ground_force_right_pz	ground_force_right_mx	ground_force_right_my	ground_force_right_mz	ground_force_left_vx	ground_force_left_vy	ground_force_left_vz	ground_force_left_px	ground_force_left_py	ground_force_left_pz	ground_force_left_mx	ground_force_left_my	ground_force_left_mz
     31.07000000	     -0.74990556	    541.27093908	     30.00488363	     -3.47422725	      0.00737619	      2.28170418	     -0.04317111	     14.81090946	      0.06706011	     12.26470423	    554.73428353	    -34.66632251	     -3.46088190	      0.00810222	      2.74089312	      0.05289475	    -15.92013929	      0.02764497
     31.07100000	     -0.64624994	    541.71343888	     30.01380718	     -3.47425355	      0.00737608	      2.28171105	     -0.04321167	     14.82482425	      0.06712311	     12.42724262	    554.88445342	    -34.63081646	     -3.46092317	      0.00810210	      2.74090638	      0.05292997	    -15.93073822	      0.02766338
     31.07200000	     -0.53560245	    542.14310830	     30.02361896	     -3.47428139	      0.00737597	      2.28171741	     -0.04325214	     14.83870798	      0.06718598	     12.58911040	    555.03582310	    -34.59822339	     -3.46096411	      0.00810199	      2.74091944	      0.05296386	    -15.94093807	      0.02768109
     31.07300000	     -0.41780878	    542.55966746	     30.03469729	     -3.47431090	      0.00737586	      2.28172322	     -0.04329247	     14.85254421	      0.06724862	     12.75011311	    555.18891820	    -34.56801612	     -3.46100466	      0.00810188	      2.74093218	      0.05299652	    -15.95076754	      0.02769816
     31.07400000	     -0.29273070	    542.96286298	     30.04743164	     -3.47434219	      0.00737575	      2.28172843	     -0.04333260	     14.86631230	      0.06731096	     12.91000847	    555.34426218	    -34.53965402	     -3.46104475	      0.00810177	      2.74094448	      0.05302805	    -15.96025938	      0.02771464
     31.07500000	     -0.16024933	    543.35246736	     30.06221775	     -3.47437534	      0.00737563	      2.28173299	     -0.04337246	     14.87998753	      0.06737288	     13.06850758	    555.50236660	    -34.51258850	     -3.46108429	      0.00810165	      2.74095622	      0.05305859	    -15.96944997	      0.02773060
     31.07600000	     -0.02026847	    543.72827819	     30.07945268	     -3.47441047	      0.00737551	      2.28173685	     -0.04341197	     14.89354111	      0.06743425	     13.22527681	    555.66372161	    -34.48626846	     -3.46112320	      0.00810154	      2.74096727	      0.05308826	    -15.97837885	      0.02774611
     31.07700000	      0.12728216	    544.09011731	     30.09952972	     -3.47444766	      0.00737539	      2.28173999	     -0.04345102	     14.90694043	      0.06749492	     13.37994063	    555.82878699	    -34.46014587	     -3.46116136	      0.00810144	      2.74097751	      0.05311719	    -15.98708814	      0.02776123
     31.07800000	      0.28244374	    544.43782972	     30.12283334	     -3.47448699	      0.00737526	      2.28174237	     -0.04348952	     14.92014924	      0.06755472	     13.53208508	    555.99798369	    -34.43368121	     -3.46119867	      0.00810133	      2.74098683	      0.05314555	    -15.99562195	      0.02777605
     31.07900000	      0.44522533	    544.77128254	     30.14973409	     -3.47452854	      0.00737513	      2.28174396	     -0.04352736	     14.93312797	      0.06761349	     13.68126214	    556.17168613	    -34.40634898	     -3.46123501	      0.00810122	      2.74099513	      0.05317347	    -16.00402561	      0.02779064
     31.08000000	      0.61560113	    545.09036396	     30.18058366	     -3.47457236	      0.00737500	      2.28174473	     -0.04356439	     14.94583411	      0.06767102	     13.82699475	    556.35021527	    -34.37764304	     -3.46127024	      0.00810112	      2.74100229	      0.05320111	    -16.01234494	      0.02780509
     31.08100000	      0.79350788	    545.39498222	     30.21571004	     -3.47461850	      0.00737487	      2.28174469	     -0.04360050	     14.95822263	      0.06772711	     13.96878247	    556.53383271	    -34.34708188	     -3.46130425	      0.00810101	      2.74100824	      0.05322862	    -16.02062543	      0.02781947
     31.08200000	      0.97884277	    545.68506474	     30.25541295	     -3.47466701	      0.00737473	      2.28174382	     -0.04363555	     14.97024646	      0.06778155	     14.10610768	    556.72273573	    -34.31421369	     -3.46133689	      0.00810091	      2.74101288	      0.05325615	    -16.02891141	      0.02783385
     31.08300000	      1.17146159	    545.96055749	     30.29995943	     -3.47471791	      0.00737459	      2.28174212	     -0.04366939	     14.98185700	      0.06783412	     14.23844226	    556.91705358	    -34.27862119	     -3.46136803	      0.00810082	      2.74101615	      0.05328384	    -16.03724524	      0.02784833
     31.08400000	      1.37117735	    546.22142454	     30.34957989	     -3.47477121	      0.00737445	      2.28173959	     -0.04370189	     14.99300470	      0.06788459	     14.36525457	    557.11684485	    -34.23992617	     -3.46139754	      0.00810072	      2.74101799	      0.05331182	    -16.04566645	      0.02786295
     31.08500000	      1.57775940	    546.46764804	     30.40446445	     -3.47482689	      0.00737430	      2.28173626	     -0.04373288	     15.00363965	      0.06793275	     14.48601670	    557.32209606	    -34.19779362	     -3.46142528	      0.00810063	      2.74101833	      0.05334021	    -16.05421093	      0.02787779
     31.08600000	      1.79093302	    546.69922852	     30.46475975	     -3.47488495	      0.00737415	      2.28173216	     -0.04376224	     15.01371221	      0.06797835	     14.60021188	    557.53272142	    -34.15193548	     -3.46145113	      0.00810054	      2.74101716	      0.05336911	    -16.06291020	      0.02789289
     31.08700000	      2.01037959	    546.91618564	     30.53056633	     -3.47494535	      0.00737399	      2.28172729	     -0.04378982	     15.02317362	      0.06802119	     14.70734199	    557.74856378	    -34.10211386	     -3.46147497	      0.00810046	      2.74101444	      0.05339862	    -16.07179064	      0.02790831
     31.08800000	      2.23573728	    547.11855937	     30.60193639	     -3.47500804	      0.00737384	      2.28172172	     -0.04381548	     15.03197667	      0.06806105	     14.80693493	    557.96939662	    -34.04814374	     -3.46149669	      0.00810038	      2.74101017	      0.05342879	    -16.08087289	      0.02792408
     31.08900000	      2.46660237	    547.30641176	     30.67887233	     -3.47507295	      0.00737368	      2.28171548	     -0.04383909	     15.04007627	      0.06809772	     14.89855203	    558.19492706	    -33.98989511	     -3.46151619	      0.00810030	      2.74100435	      0.05345969	    -16.09017129	      0.02794023
     31.09000000	      2.70253106	    547.47982902	     30.76132578	     -3.47514000	      0.00737351	      2.28170861	     -0.04386053	     15.04743009	      0.06813102	     14.98179509	    558.42479984	    -33.92729434	     -3.46153339	      0.00810023	      2.74099698	      0.05349132	    -16.09969343	      0.02795677
     31.09100000	      2.94304185	    547.63892415	     30.84919730	     -3.47520910	      0.00737334	      2.28170119	     -0.04387967	     15.05399911	      0.06816076	     15.05631307	    558.65860209	    -33.86032503	     -3.46154822	      0.00810017	      2.74098812	      0.05352371	    -16.10943982	      0.02797369
     31.09200000	      3.18761833	    547.78383986	     30.94233669	     -3.47528013	      0.00737317	      2.28169326	     -0.04389643	     15.05974816	      0.06818679	     15.12180835	    558.89586876	    -33.78902804	     -3.46156063	      0.00810011	      2.74097779	      0.05355681	    -16.11940370	      0.02799099
     31.09300000	      3.43571237	    547.91475171	     31.04054391	     -3.47535297	      0.00737300	      2.28168491	     -0.04391071	     15.06464639	      0.06820897	     15.17804230	    559.13608868	    -33.71350082	     -3.46157059	      0.00810006	      2.74096604	      0.05359059	    -16.12957101	      0.02800865
     31.09400000	      3.68674765	    548.03187151	     31.14357056	     -3.47542747	      0.00737282	      2.28167618	     -0.04392243	     15.06866768	      0.06822718	     15.22484013	    559.37871103	    -33.63389612	     -3.46157810	      0.00810001	      2.74095296	      0.05362498	    -16.13992043	      0.02802662
     31.09500000	      3.94012346	    548.13545068	     31.25112194	     -3.47550349	      0.00737264	      2.28166717	     -0.04393153	     15.07179100	      0.06824132	     15.26209493	    559.62315219	    -33.55041993	     -3.46158315	      0.00809997	      2.74093861	      0.05365988	    -16.15042368	      0.02804486
     31.09600000	      4.19521868	    548.22578354	     31.36285959	     -3.47558086	      0.00737246	      2.28165795	     -0.04393797	     15.07400068	      0.06825132	     15.28977086	    559.86880274	    -33.46332875	     -3.46158578	      0.00809993	      2.74092309	      0.05369517	    -16.16104589	      0.02806330
